<?xml version="1.0" standalone="no"?>
<!DOCTYPE svg PUBLIC "-//W3C//DTD SVG 20010904//EN"
 "http://www.w3.org/TR/2001/REC-SVG-20010904/DTD/svg10.dtd">
<svg version="1.0" xmlns="http://www.w3.org/2000/svg"
 width="1156.000000pt" height="1156.000000pt" viewBox="0 0 1156.000000 1156.000000"
 preserveAspectRatio="xMidYMid meet">
<metadata>
Created by potrace 1.14, written by Peter Selinger 2001-2017
</metadata>
<g transform="translate(0.000000,1156.000000) scale(0.100000,-0.100000)"
fill="#000000" stroke="none">
<path d="M3715 10769 c-73 -15 -80 -17 -137 -39 -178 -67 -333 -242 -387 -439
-30 -109 -25 -278 11 -379 38 -104 82 -175 164 -257 56 -57 90 -81 165 -117
107 -53 168 -69 271 -72 186 -7 357 62 489 195 149 150 216 352 183 554 -16
93 -19 103 -45 166 -79 189 -264 341 -469 386 -37 9 -209 10 -245 2z"/>
<path d="M11305 10600 c-99 -49 -286 -141 -415 -204 -129 -63 -370 -181 -535
-261 -165 -81 -352 -172 -415 -202 -132 -63 -216 -105 -245 -121 -11 -6 -101
-50 -200 -98 -99 -48 -286 -138 -415 -201 -129 -63 -286 -139 -348 -169 l-112
-55 -25 29 c-188 223 -506 508 -775 693 -84 58 -277 179 -285 179 -4 0 -19 8
-33 19 -83 58 -399 203 -622 285 -159 58 -537 162 -548 151 -3 -2 9 -7 24 -11
113 -27 562 -236 625 -290 8 -8 19 -14 23 -14 8 0 200 -128 265 -177 25 -19
59 -44 75 -56 16 -12 37 -29 46 -37 10 -8 49 -42 88 -75 229 -194 481 -489
652 -762 80 -127 88 -143 71 -143 -5 0 -161 -75 -348 -166 -186 -91 -387 -190
-448 -219 -60 -29 -174 -85 -253 -123 l-143 -71 -204 70 c-112 38 -206 69
-209 69 -4 0 1 -12 11 -27 37 -60 733 -1120 780 -1190 10 -15 12 -8 7 37 -2
30 -6 66 -9 80 -2 14 -7 54 -10 90 -4 36 -8 76 -10 90 -2 14 -6 50 -10 80 -3
30 -7 71 -10 90 -2 19 -7 53 -10 75 l-5 40 263 168 c144 93 348 225 452 293
105 68 197 127 205 131 8 3 41 24 72 45 32 21 64 41 72 44 10 4 25 -26 55
-108 39 -108 97 -295 107 -348 3 -14 12 -52 20 -85 9 -33 18 -73 20 -90 3 -16
7 -39 8 -50 19 -103 23 -138 32 -220 3 -38 8 -79 11 -90 10 -48 9 -491 -3
-605 -47 -490 -181 -928 -413 -1350 -90 -164 -235 -380 -330 -492 -10 -13 -35
-42 -54 -65 l-34 -42 -177 262 c-97 145 -176 266 -176 270 0 7 34 80 159 341
34 70 60 130 59 132 -2 2 -24 -10 -48 -25 -40 -26 -354 -212 -805 -479 -88
-52 -176 -104 -195 -116 -19 -12 -43 -25 -52 -29 -29 -11 -20 -27 15 -28 17 0
41 -2 52 -4 11 -2 43 -7 70 -10 102 -13 226 -33 229 -36 5 -6 183 -217 233
-275 80 -95 109 -129 196 -230 48 -57 87 -108 87 -113 0 -12 -149 -132 -270
-217 -265 -186 -573 -340 -880 -441 -130 -42 -328 -96 -400 -108 -19 -3 -61
-10 -92 -15 -32 -6 -70 -12 -85 -15 -16 -2 -50 -7 -78 -10 -27 -3 -66 -8 -85
-11 -70 -11 -560 -14 -560 -4 0 6 7 54 15 108 8 53 17 115 20 137 3 22 12 78
20 125 8 47 16 101 19 120 2 19 8 58 12 85 5 28 8 54 9 59 0 5 66 47 148 95
81 47 147 89 147 92 0 4 -12 10 -27 13 -30 8 -252 76 -343 106 -30 10 -113 36
-185 58 -326 101 -464 144 -513 161 -41 15 -52 16 -48 6 3 -8 49 -72 103 -144
l97 -130 4 -411 3 -411 -28 7 c-181 41 -372 102 -548 176 -425 177 -808 437
-1133 768 -70 71 -242 270 -242 280 0 5 82 68 183 141 100 73 236 172 302 221
66 48 260 189 430 313 408 297 454 330 590 431 119 87 285 209 305 222 14 9
48 34 75 54 64 46 593 433 620 452 11 8 56 41 100 73 44 33 100 73 124 91 25
18 42 32 38 32 -3 0 -700 -347 -1547 -771 -848 -424 -1544 -769 -1546 -767
-11 12 -120 242 -157 334 -86 212 -162 473 -196 671 -6 35 -13 75 -16 90 -3
16 -8 51 -11 78 -3 28 -8 61 -10 74 -8 55 -16 211 -18 339 -6 476 79 915 270
1382 52 128 215 433 271 508 14 18 23 35 21 37 -6 7 -194 -238 -281 -368 -222
-329 -366 -622 -492 -1001 -66 -197 -133 -460 -149 -586 -3 -19 -12 -80 -20
-135 -8 -55 -18 -131 -21 -170 -4 -38 -8 -90 -11 -115 -5 -54 -5 -510 0 -560
2 -19 7 -73 11 -120 4 -47 8 -87 10 -90 1 -3 6 -36 10 -75 5 -57 30 -194 61
-343 7 -36 41 -171 58 -230 14 -50 13 -53 -6 -63 -11 -6 -274 -138 -584 -293
l-563 -281 -196 98 -196 98 24 -43 c20 -35 246 -442 355 -638 13 -25 58 -106
100 -180 41 -74 89 -160 105 -190 16 -30 37 -68 47 -85 20 -33 16 -25 155
-277 54 -98 99 -178 102 -178 2 0 1 78 -2 172 -3 95 -8 232 -10 305 l-4 132
92 69 c93 69 487 357 733 534 l134 97 21 -40 c252 -495 662 -984 1128 -1347
304 -237 620 -416 1026 -582 110 -45 443 -150 476 -150 14 0 19 -8 20 -27 2
-52 8 -615 13 -1206 2 -324 7 -591 10 -595 3 -3 7 6 7 19 2 34 37 268 64 429
2 14 7 43 9 65 3 22 7 49 10 60 2 11 7 45 11 75 4 30 9 64 11 75 3 11 7 38 9
60 3 22 7 47 10 55 2 8 7 40 10 70 4 30 8 57 10 60 1 3 6 30 9 61 4 31 8 66
11 77 2 11 7 42 11 69 3 26 8 55 9 63 2 8 6 40 11 70 4 30 8 57 9 60 1 3 5 32
9 65 5 33 10 69 12 80 4 18 7 38 19 115 2 14 7 48 11 75 3 28 7 51 9 53 1 1
35 -2 76 -8 347 -51 767 -60 1064 -24 651 79 1181 262 1725 595 111 68 316
213 406 288 17 14 49 40 70 58 58 48 101 87 177 159 37 35 72 64 76 64 5 0 15
-10 24 -22 8 -13 23 -32 34 -43 26 -29 569 -669 623 -735 24 -30 49 -59 56
-65 6 -5 33 -37 60 -70 27 -33 61 -73 75 -90 48 -55 153 -179 204 -240 27 -33
52 -62 55 -65 3 -3 93 -108 200 -235 107 -126 196 -232 199 -235 4 -3 40 -45
81 -95 41 -49 77 -92 81 -95 3 -3 28 -33 57 -68 29 -35 52 -61 52 -58 0 8
-204 311 -212 314 -5 2 -8 9 -8 15 0 6 -7 19 -17 29 -9 10 -21 27 -27 38 -6
11 -152 230 -325 487 -173 258 -438 653 -590 878 -151 226 -303 452 -338 504
-40 60 -60 98 -54 105 5 6 47 61 95 121 47 61 90 115 94 120 125 158 347 543
448 778 90 208 195 516 220 647 3 14 12 52 21 85 14 54 51 251 57 300 8 64 18
143 22 165 24 150 24 817 0 891 -3 8 -7 40 -10 72 -3 31 -8 67 -10 80 -3 12
-8 40 -10 62 -7 48 -14 91 -22 125 -3 14 -8 38 -11 54 -4 23 -21 95 -77 316
-20 79 -130 381 -181 495 -89 201 -227 453 -338 619 -32 48 -55 92 -50 96 4 5
132 88 283 185 151 98 298 192 325 209 47 31 117 76 308 199 45 30 141 91 212
137 72 46 180 116 240 155 61 39 215 138 343 220 127 83 328 212 445 287 116
75 269 173 340 218 70 45 127 84 127 86 0 5 15 13 -185 -86z"/>
</g>
</svg>
