<?xml version="1.0" standalone="no"?>
<!DOCTYPE svg PUBLIC "-//W3C//DTD SVG 20010904//EN"
 "http://www.w3.org/TR/2001/REC-SVG-20010904/DTD/svg10.dtd">
<svg version="1.0" xmlns="http://www.w3.org/2000/svg"
 width="1024.000000pt" height="1024.000000pt" viewBox="0 0 1024.000000 1024.000000"
 preserveAspectRatio="xMidYMid meet">
<metadata>
Created by potrace 1.14, written by Peter Selinger 2001-2017
</metadata>
<g transform="translate(0.000000,1024.000000) scale(0.100000,-0.100000)"
fill="#000000" stroke="none">
<path d="M0 5120 l0 -5120 1174 0 1174 0 8 32 c4 18 5 344 3 723 l-4 690 675
1 c371 1 859 7 1084 13 278 8 413 8 420 1 7 -7 9 -254 7 -735 l-2 -725 1218 0
1218 0 1 83 c1 45 2 389 3 764 l2 681 50 7 c28 4 94 4 147 1 200 -13 805 -28
1349 -35 309 -3 565 -10 570 -14 16 -16 10 -554 -9 -797 -5 -69 -10 -252 -12
-408 l-2 -283 110 3 109 3 3 727 c2 523 6 732 14 745 11 17 35 18 471 15 l459
-3 0 97 0 97 -465 -7 -464 -7 -6 23 c-3 13 -4 291 -1 618 3 375 0 667 -7 790
-15 271 -15 416 1 432 10 10 118 13 477 16 l465 4 0 101 0 100 -440 -5 c-390
-5 -439 -4 -428 9 15 18 124 93 135 93 4 0 46 23 92 50 46 28 87 50 92 50 19
0 172 126 186 154 9 17 28 49 43 71 27 39 100 235 100 267 0 9 19 62 41 119
23 57 47 127 54 155 47 178 44 480 -9 864 -9 63 -21 151 -27 195 -6 44 -19
121 -29 170 -10 50 -23 131 -29 180 -12 90 -18 133 -46 320 -32 208 -84 429
-125 532 -6 15 -5 23 6 27 7 3 97 3 199 0 l185 -6 0 96 0 96 -203 0 c-147 0
-208 3 -219 13 -9 6 -21 30 -28 52 -7 22 -34 83 -60 135 -33 67 -52 121 -64
185 -26 135 -76 303 -120 395 -30 65 -112 198 -212 344 l-71 103 3 134 c1 74
3 171 3 217 1 78 2 82 24 82 20 1 21 2 5 14 -10 7 -18 15 -18 18 0 3 183 8
408 11 224 4 440 10 480 14 l72 6 0 105 0 104 -37 -7 c-80 -15 -271 -25 -590
-31 l-332 -7 -7 27 c-3 15 -4 82 0 149 11 218 19 833 11 911 l-7 76 -109 0
-109 0 -2 -562 -3 -563 -235 -3 c-289 -4 -316 1 -404 74 -82 68 -189 197 -174
212 7 7 -2 18 -31 36 -22 15 -41 31 -41 36 0 6 -17 18 -38 27 -20 8 -48 21
-62 26 -14 6 -32 19 -40 28 -14 16 -35 24 -175 66 -30 9 -120 18 -230 23 -170
7 -187 10 -292 44 -62 21 -115 41 -118 46 -3 5 -34 18 -68 29 -35 12 -78 32
-97 45 l-34 23 3 207 3 206 -100 0 -99 0 -6 -97 c-4 -54 -7 -128 -7 -165 0
-38 -4 -68 -9 -68 -5 0 -26 6 -48 14 -88 31 -182 39 -284 23 -108 -16 -287 -9
-555 20 -124 13 -165 14 -225 5 -41 -7 -144 -21 -229 -32 -186 -25 -321 -55
-352 -79 -13 -10 -44 -28 -70 -40 l-47 -23 -38 37 c-59 58 -86 65 -199 54 -54
-5 -100 -7 -102 -4 -8 8 -7 185 1 273 l8 82 -80 0 -81 0 -1 -57 c-4 -151 -1
-292 6 -328 6 -36 5 -42 -16 -52 -25 -13 -213 -50 -289 -57 -48 -5 -154 -37
-204 -63 -16 -8 -56 -35 -88 -58 -35 -25 -88 -52 -131 -65 -40 -12 -144 -51
-232 -85 -180 -71 -223 -101 -281 -195 -42 -68 -57 -75 -189 -90 -44 -4 -89
-11 -100 -15 -32 -11 -116 -56 -160 -86 l-40 -28 -221 -1 -221 -1 3 113 c2 62
-3 244 -11 403 -8 160 -15 374 -15 478 l0 187 -86 0 -86 0 6 -332 c12 -638 14
-843 7 -768 l-7 75 -2 -79 -2 -79 -277 7 c-256 6 -1127 -6 -1408 -19 -183 -9
-294 -9 -301 -2 -4 3 -8 172 -10 374 -2 203 -6 440 -9 528 -2 88 -5 190 -5
228 l0 67 -65 0 -65 0 0 -5120z m5952 4704 c51 -3 127 -13 168 -22 80 -18 250
-18 282 -1 9 5 79 12 155 15 125 6 142 4 185 -15 l48 -20 -1 -68 c-2 -120 15
-175 70 -227 17 -16 27 -34 24 -39 -4 -6 0 -8 11 -4 9 4 14 3 11 -2 -3 -5 -1
-12 4 -16 6 -3 7 -13 4 -22 -5 -13 -8 -14 -17 -2 -13 17 -28 22 -86 27 -72 6
-82 -12 -74 -131 l7 -96 43 6 c50 7 48 9 83 -117 15 -55 21 -104 21 -182 0
-60 -2 -108 -4 -108 -3 0 -16 4 -30 9 -20 8 -31 5 -62 -20 -20 -16 -40 -29
-44 -29 -14 0 -38 36 -45 69 -4 19 -22 64 -40 100 -18 36 -44 109 -59 161 -15
52 -42 127 -61 165 -21 42 -34 82 -32 100 2 28 -1 30 -35 33 -30 3 -38 8 -49
35 -7 18 -20 43 -28 56 -9 14 -14 34 -13 46 2 12 -6 33 -18 47 -11 14 -20 30
-20 35 0 14 -51 58 -83 71 -18 8 -47 10 -76 6 -36 -5 -50 -2 -60 10 -7 9 -17
16 -22 16 -12 0 -11 -37 1 -45 6 -3 10 -19 10 -36 0 -19 5 -29 15 -29 8 0 15
-4 15 -8 0 -5 23 -19 51 -31 28 -13 53 -31 55 -40 3 -9 16 -44 30 -79 13 -34
24 -65 24 -67 0 -7 -232 3 -254 11 -10 4 -21 2 -25 -5 -5 -8 -30 -7 -97 5 -49
9 -138 17 -199 17 -174 1 -198 -8 -193 -69 l3 -39 63 -3 c34 -2 62 -7 62 -11
0 -5 7 -12 16 -15 12 -5 15 -2 10 10 -5 13 -3 14 6 7 15 -13 166 -21 456 -27
l214 -5 26 -31 c24 -29 50 -104 92 -269 5 -19 13 -37 18 -40 14 -9 43 -111 35
-124 -3 -6 -1 -7 5 -3 7 4 10 -1 9 -14 -1 -17 -8 -20 -49 -20 -26 0 -74 -9
-105 -19 -32 -11 -92 -24 -133 -30 -41 -6 -123 -19 -182 -30 -149 -27 -208
-70 -222 -161 -10 -67 -30 -150 -36 -150 -14 1 -38 28 -45 50 -4 14 -34 64
-65 111 -66 97 -96 158 -104 209 -8 56 -41 169 -71 244 -27 66 -27 74 -21 180
4 61 7 124 7 141 -1 39 -30 78 -69 90 -31 9 -32 10 -27 55 12 95 -56 145 -214
157 l-92 6 6 31 c4 17 9 39 11 49 9 29 139 84 244 103 141 25 390 53 432 48
21 -2 79 -7 130 -10z m-1173 -110 c25 -8 57 -24 72 -35 15 -10 43 -19 64 -19
32 0 36 -3 33 -22 -2 -18 -14 -26 -53 -36 -27 -8 -63 -16 -80 -19 -16 -2 -46
-12 -65 -22 -19 -10 -54 -21 -78 -25 -24 -3 -51 -10 -60 -15 -78 -40 -263
-108 -352 -129 -25 -6 -103 -14 -175 -17 -134 -7 -174 -16 -285 -67 -36 -16
-74 -33 -85 -37 -77 -32 -115 -55 -200 -120 -40 -32 -70 -47 -103 -52 -62 -9
-170 -49 -207 -75 -43 -31 -225 -124 -242 -124 -8 0 -49 -17 -91 -38 -42 -21
-104 -52 -137 -68 -50 -24 -64 -37 -82 -74 -12 -25 -25 -65 -28 -90 -3 -25
-12 -73 -20 -107 -18 -73 -20 -216 -4 -245 16 -29 -5 -62 -61 -100 -25 -17
-70 -58 -100 -92 -111 -124 -226 -226 -255 -226 -5 0 -26 -8 -45 -19 -30 -16
-187 -61 -212 -61 -14 0 -38 66 -38 107 0 21 -7 47 -15 57 -8 11 -15 36 -15
57 0 42 -32 89 -61 89 -10 0 -19 5 -19 10 0 10 128 99 217 151 57 33 136 110
179 174 65 97 139 184 177 210 61 41 154 85 179 85 36 0 121 70 134 110 13 41
57 74 126 95 33 9 69 32 109 68 67 61 85 67 206 67 123 0 182 30 225 115 31
60 74 105 126 131 66 34 222 81 324 98 101 17 150 40 197 91 54 60 138 93 296
116 76 11 143 23 149 27 21 13 138 51 177 57 22 4 53 13 67 21 34 18 56 17
111 -2z m2631 -220 c52 -9 120 -19 151 -21 l57 -5 7 -46 c4 -26 12 -53 18 -60
6 -8 13 -53 15 -100 2 -48 8 -91 12 -97 4 -5 11 -28 15 -50 7 -42 40 -114 107
-235 57 -104 61 -144 83 -895 7 -238 15 -363 26 -414 5 -24 7 -46 5 -49 -3 -2
-42 -4 -88 -4 -119 2 -243 -27 -368 -86 -118 -56 -169 -73 -202 -65 -19 4 -20
3 -8 -7 13 -10 13 -11 0 -7 -15 4 -18 16 -24 127 -2 36 -8 103 -14 150 -10 77
-32 483 -36 652 0 37 -5 68 -10 68 -5 0 -3 6 3 14 9 10 9 16 1 21 -16 10 -10
115 6 115 7 0 16 -4 19 -10 3 -5 21 -10 38 -10 38 0 47 -6 71 -44 14 -22 66
-151 66 -163 0 -2 11 -3 25 -3 29 0 75 40 75 65 0 19 -26 73 -48 98 -12 14
-13 22 -4 43 16 34 15 69 -2 84 -8 6 -52 15 -98 19 -92 9 -120 20 -155 62 -14
16 -36 34 -50 41 -37 18 -61 93 -62 193 -2 110 -16 202 -41 258 -34 76 -29 79
85 41 76 -25 131 -35 225 -43 69 -6 154 -17 190 -26 36 -8 77 -15 93 -15 26 0
27 2 27 48 0 105 -56 126 -460 170 -44 5 -64 12 -62 20 2 10 -2 10 -19 1 -15
-8 -19 -8 -15 0 4 6 2 11 -5 11 -8 0 -7 5 3 18 9 9 13 23 10 31 -3 9 0 11 8 6
9 -5 11 -4 6 4 -10 16 -29 3 -22 -16 4 -9 2 -11 -6 -7 -7 4 -8 3 -4 -4 12 -20
0 -13 -20 11 -10 12 -12 17 -5 10 10 -9 18 -6 37 15 22 25 25 26 37 10 13 -16
15 -15 33 5 10 12 18 25 17 28 -1 4 17 10 40 13 59 9 98 28 92 44 -3 9 1 12
13 8 9 -3 60 -13 112 -22z m466 -58 c32 -12 68 -27 79 -31 11 -5 23 -9 26 -9
17 -3 137 -118 172 -165 33 -45 128 -151 182 -202 18 -18 169 -129 230 -170
32 -22 62 -43 65 -47 3 -4 28 -26 55 -49 138 -114 168 -158 142 -210 -8 -15
-20 -59 -26 -98 -9 -59 -7 -83 9 -157 11 -51 30 -103 45 -125 14 -21 25 -43
25 -50 0 -7 13 -27 28 -45 39 -46 58 -78 66 -113 4 -16 21 -64 38 -105 36 -91
74 -219 81 -280 9 -66 43 -221 57 -255 6 -16 20 -70 31 -120 30 -140 35 -157
58 -200 12 -21 21 -46 21 -55 0 -8 7 -35 16 -60 15 -42 20 -78 24 -175 4 -78
5 -75 -42 -57 -24 8 -50 21 -58 28 -8 6 -31 15 -50 19 -69 13 -67 11 -74 88
-4 40 -9 127 -11 193 -6 140 -30 216 -85 274 -18 19 -44 60 -57 90 -14 30 -36
79 -50 107 -28 59 -26 97 8 165 12 24 19 58 19 96 0 51 -3 60 -22 69 -72 33
-223 162 -339 290 -69 76 -131 148 -138 161 -9 18 -10 36 -1 77 12 59 8 75
-17 75 -9 0 -33 16 -52 35 -20 19 -74 58 -121 86 -67 40 -97 52 -142 56 l-57
6 -5 51 c-15 143 -20 194 -20 226 -1 19 -4 37 -7 40 -3 3 -18 30 -32 60 -15
30 -32 64 -39 75 -63 97 -81 134 -87 182 -4 29 -4 53 1 53 12 0 9 78 -6 143
-7 31 -10 57 -6 57 3 0 33 -11 66 -24z m-2594 -13 c22 -22 22 -29 19 -180 -2
-133 -5 -163 -21 -190 -18 -30 -18 -32 -2 -31 52 4 92 -3 92 -16 0 -8 -5 -16
-12 -18 -7 -3 -9 -14 -4 -32 5 -20 18 -32 46 -43 23 -9 42 -25 46 -37 3 -12
13 -29 22 -38 9 -12 18 -51 23 -111 4 -51 9 -99 11 -107 2 -9 -13 -20 -42 -30
-25 -8 -50 -18 -55 -21 -6 -3 -37 -14 -70 -24 -33 -10 -85 -26 -115 -36 -117
-39 -249 -68 -335 -74 l-90 -6 -49 78 c-27 43 -59 101 -72 129 -27 61 -51 75
-75 42 -32 -42 -30 -68 9 -107 19 -20 48 -65 64 -101 16 -36 38 -82 49 -102
11 -21 18 -42 15 -46 -3 -5 47 -10 112 -10 88 -2 138 3 202 18 47 11 119 27
160 35 41 9 105 24 141 35 36 11 71 20 78 20 8 0 40 12 72 26 l59 27 25 -27
c13 -14 28 -26 34 -26 5 0 13 -10 17 -22 3 -12 26 -42 50 -68 49 -53 66 -92
84 -199 24 -143 -2 -274 -86 -436 -65 -125 -89 -195 -119 -334 -30 -144 -36
-159 -73 -167 -15 -3 -36 -10 -47 -15 -30 -14 -124 -14 -269 -1 -117 11 -131
10 -148 -5 -25 -22 -23 -75 3 -99 19 -17 42 -19 250 -22 l229 -4 2 -121 c1
-67 2 -252 3 -412 0 -159 4 -315 9 -346 l8 -57 -228 -7 c-171 -5 -235 -11
-251 -21 -24 -15 -31 -48 -13 -59 18 -11 244 -46 355 -55 113 -8 220 -32 243
-54 6 -6 18 -34 26 -61 8 -28 31 -95 50 -150 20 -55 43 -143 51 -196 8 -52 21
-112 30 -132 17 -41 20 -152 5 -162 -5 -3 -10 -17 -10 -29 0 -13 -25 -61 -55
-106 l-55 -83 0 -86 c1 -108 23 -197 107 -439 21 -60 3 -133 -41 -166 -41 -31
-158 -90 -221 -111 -87 -29 -191 -4 -342 83 -73 42 -93 58 -97 80 -24 121 -28
175 -21 297 5 71 10 166 12 210 2 44 6 110 9 146 10 113 -84 570 -138 669 -27
49 -66 106 -82 119 -10 8 -29 34 -43 58 -22 38 -25 51 -19 96 4 29 11 183 17
342 5 160 12 344 15 410 5 99 2 141 -16 235 -34 185 -44 223 -66 261 -12 20
-25 47 -29 60 -13 40 -110 235 -143 286 -17 26 -36 71 -42 98 -7 28 -23 93
-36 145 -13 52 -29 118 -35 145 -34 151 -128 354 -200 433 -72 78 -129 169
-129 204 0 16 5 39 12 51 25 49 104 129 154 158 48 27 60 30 104 24 40 -6 67
-1 142 23 135 43 202 60 298 77 139 23 330 66 367 81 l34 15 -22 31 -22 31
-136 -6 c-75 -4 -154 -11 -176 -16 -23 -6 -95 -15 -160 -20 -66 -5 -132 -14
-147 -20 -19 -7 -29 -7 -35 2 -25 32 -55 140 -60 214 l-6 82 36 36 c19 19 45
35 57 35 12 0 45 11 73 24 32 14 81 25 128 29 42 4 87 11 100 16 14 6 101 9
201 8 169 -2 179 -3 200 -24z m1693 -3 c-3 -5 -12 -10 -18 -10 -7 0 -6 4 3 10
19 12 23 12 15 0z m20 -50 c3 -6 -4 -10 -17 -10 -18 0 -20 2 -8 10 19 12 18
12 25 0z m-2660 -157 c4 -21 15 -64 25 -95 16 -49 17 -62 6 -100 -12 -38 -22
-48 -85 -87 -45 -28 -96 -72 -139 -120 -37 -41 -89 -97 -116 -123 l-48 -48
-107 0 c-133 0 -215 -14 -263 -46 -21 -13 -40 -24 -43 -24 -4 0 -27 -17 -53
-39 -26 -21 -75 -53 -110 -71 l-63 -33 -54 17 c-151 47 -284 44 -362 -8 -21
-14 -45 -26 -54 -26 -10 0 -50 -18 -89 -41 -40 -22 -75 -37 -78 -34 -11 11 -4
97 13 160 9 33 21 77 26 99 15 61 26 74 68 81 22 4 55 18 73 31 73 54 144 96
246 145 194 93 281 129 311 129 10 0 41 16 67 35 119 84 164 115 170 115 3 0
18 8 32 18 84 58 182 80 392 91 256 13 228 16 235 -26z m4725 -289 c11 -3 16
-17 16 -46 0 -24 5 -77 12 -118 7 -41 16 -95 19 -120 l6 -44 -43 37 c-63 54
-280 285 -280 298 0 8 36 9 128 4 70 -3 134 -8 142 -11z m-6620 -63 c24 -7 24
-8 5 -18 -11 -6 -37 -15 -58 -21 -30 -8 -40 -7 -52 5 -8 8 -15 18 -15 23 0 15
79 23 120 11z m-281 -94 c-2 -71 -4 -77 -54 -153 -53 -79 -221 -251 -303 -308
-23 -17 -42 -33 -42 -37 0 -5 -20 -26 -44 -49 -26 -24 -51 -60 -61 -88 -10
-26 -22 -52 -27 -59 -8 -10 -23 -54 -33 -93 -11 -49 -30 -72 -92 -113 -117
-80 -177 -131 -208 -180 -81 -126 -105 -167 -136 -232 -18 -38 -44 -86 -57
-105 -13 -19 -28 -44 -32 -55 -5 -11 -36 -53 -70 -93 -60 -71 -133 -121 -146
-100 -10 15 -276 -2 -464 -31 -36 -5 -108 -11 -160 -13 l-95 -3 0 877 c0 482
2 879 5 882 3 3 433 8 955 11 521 3 951 7 953 10 3 3 30 5 59 5 l54 0 -2 -73z
m4557 -118 c36 -11 47 -10 77 4 48 23 52 22 102 -24 42 -39 45 -45 45 -93 0
-28 4 -76 9 -106 5 -30 12 -140 16 -245 4 -104 9 -208 10 -230 2 -22 7 -163
11 -314 l7 -274 -34 7 c-19 3 -81 10 -139 16 -58 5 -145 20 -195 34 -103 29
-179 33 -201 11 -10 -9 -14 -29 -12 -52 3 -35 6 -39 43 -47 22 -4 50 -13 62
-18 12 -6 32 -8 45 -4 33 8 141 -14 155 -33 10 -14 12 -14 19 2 13 35 115 1
127 -42 3 -12 1 -21 -4 -21 -5 0 -9 -7 -9 -15 0 -8 7 -15 15 -15 8 0 15 -4 15
-10 0 -5 5 -10 11 -10 7 0 8 11 4 30 -6 29 -6 30 33 30 l39 0 8 -272 c12 -412
13 -435 22 -544 8 -80 16 -115 42 -170 18 -38 41 -78 51 -89 30 -31 112 -128
144 -170 16 -20 43 -43 60 -51 17 -8 56 -31 86 -52 l55 -38 -4 -239 c-3 -196
-7 -251 -22 -300 -10 -33 -25 -91 -34 -130 -23 -106 -50 -201 -82 -295 l-29
-85 -92 3 c-117 3 -235 24 -293 50 -25 11 -56 23 -69 27 -14 3 -34 13 -45 21
-18 13 -18 16 -4 42 22 38 48 139 50 192 1 25 1 104 0 175 -2 142 13 257 40
321 30 72 85 78 226 27 23 -8 46 -12 52 -8 17 10 13 67 -8 101 -20 33 -41 41
-136 51 -27 3 -54 9 -59 13 -4 4 -9 29 -10 54 -1 29 -10 56 -24 76 -13 17 -30
49 -37 71 -8 23 -26 54 -39 69 -13 16 -34 50 -46 75 -20 41 -21 52 -11 85 13
42 14 109 3 127 -4 6 -32 15 -62 18 -66 8 -184 47 -260 86 -30 15 -116 48
-190 73 -74 25 -155 53 -180 62 -36 13 -66 15 -150 10 -58 -3 -116 -8 -130
-10 -14 -2 -46 -7 -71 -11 -48 -7 -76 8 -48 26 9 5 10 9 2 9 -8 0 -12 60 -12
219 -2 226 9 338 34 375 9 11 15 43 15 73 0 28 4 54 9 58 5 3 17 31 26 63 9
31 47 120 85 197 122 249 114 211 114 515 1 246 2 267 21 299 11 19 29 39 40
45 11 6 22 13 25 16 20 21 64 36 115 39 33 2 78 9 100 17 22 7 78 22 125 32
47 11 123 36 170 56 87 37 99 38 176 15z m-2757 -231 c22 -29 58 -76 80 -105
22 -29 48 -67 57 -85 9 -18 25 -44 35 -57 11 -13 19 -30 19 -38 0 -8 24 -52
54 -97 69 -104 106 -181 106 -226 0 -30 -6 -38 -38 -58 -64 -39 -76 -46 -112
-72 -19 -14 -60 -42 -90 -62 -30 -21 -75 -53 -100 -72 -25 -19 -50 -35 -55
-35 -6 -1 -26 -11 -45 -24 -58 -38 -199 -97 -233 -97 -18 0 -53 -6 -78 -14
-29 -9 -70 -12 -115 -9 -85 6 -132 35 -180 110 -47 73 -60 110 -79 210 -9 49
-22 98 -28 111 -8 18 -8 27 1 40 7 9 18 28 25 42 24 50 91 166 119 207 15 23
28 48 28 57 0 24 70 90 130 125 31 17 93 64 139 105 68 62 89 76 124 80 23 3
53 7 67 10 14 2 48 4 77 5 52 1 53 1 92 -51z m4084 25 c-7 -2 -19 -2 -25 0 -7
3 -2 5 12 5 14 0 19 -2 13 -5z m72 -52 c66 -44 125 -101 146 -141 36 -71 88
-140 155 -208 34 -34 72 -76 85 -94 42 -55 119 -136 154 -159 22 -16 42 -43
59 -82 24 -55 25 -84 3 -99 -6 -3 -12 -31 -15 -60 -5 -59 14 -107 63 -166 14
-16 39 -63 56 -103 17 -41 39 -85 48 -99 54 -79 68 -144 75 -336 6 -175 2
-188 -87 -278 -53 -54 -169 -116 -244 -130 l-33 -5 0 52 c0 29 -5 68 -10 87
-6 19 -17 110 -25 202 -9 92 -19 186 -24 210 -5 24 -14 67 -20 96 -6 30 -13
58 -16 63 -4 5 -27 9 -52 9 -42 0 -45 -1 -38 -22 3 -13 8 -63 11 -113 2 -49
11 -139 20 -198 8 -59 17 -131 20 -158 2 -28 11 -96 19 -152 8 -56 13 -102 12
-103 -1 -1 -96 -4 -210 -7 -152 -4 -209 -2 -212 6 -3 7 -9 46 -14 87 -5 41
-12 84 -15 95 -17 72 -25 119 -31 180 -4 39 -15 90 -26 115 -15 37 -50 196
-76 342 -7 40 14 94 59 145 22 26 51 64 64 85 21 33 29 38 62 38 24 0 64 -15
112 -40 97 -52 179 -90 194 -90 7 0 17 -5 23 -11 5 -5 30 -9 54 -7 38 3 45 7
54 32 9 25 6 31 -25 58 -19 17 -55 49 -80 72 -25 23 -82 60 -127 84 -67 35
-95 43 -157 49 -42 3 -80 11 -84 17 -4 6 -10 130 -13 276 -4 146 -10 314 -14
373 l-8 108 42 -2 c23 -2 53 -10 66 -18z m-4939 -92 c42 -17 78 -38 81 -46 6
-15 -48 -123 -119 -242 -21 -34 -38 -66 -38 -70 0 -3 -9 -17 -20 -31 -15 -19
-20 -41 -20 -90 0 -97 47 -300 80 -340 29 -35 53 -91 43 -100 -8 -8 -167 -41
-181 -38 -4 0 -14 -2 -22 -6 -33 -14 -158 -58 -204 -71 -27 -8 -61 -26 -76
-40 -36 -34 -159 -114 -188 -121 -25 -7 -94 20 -114 43 -15 19 -83 53 -104 53
-9 0 -31 7 -50 16 l-35 17 38 36 c50 48 93 104 93 123 0 8 10 31 23 49 21 31
24 52 34 220 6 105 16 196 23 209 6 12 36 49 66 81 30 32 54 67 54 77 0 12 21
28 65 50 35 17 72 43 81 57 9 14 48 48 88 77 39 28 88 66 110 84 63 54 168 55
292 3z m-1382 -474 c9 -22 28 -57 43 -77 35 -52 26 -74 -49 -125 -84 -56 -147
-118 -165 -162 -9 -20 -50 -106 -93 -191 -85 -171 -96 -200 -110 -285 -9 -52
-7 -62 20 -122 30 -65 30 -65 11 -92 -11 -15 -53 -58 -93 -97 -40 -38 -91 -91
-113 -118 -39 -48 -39 -48 -88 -42 -29 3 -58 1 -71 -6 -11 -6 -39 -12 -61 -14
-22 -1 -94 -14 -160 -29 -66 -15 -137 -30 -158 -32 -35 -5 -38 -3 -52 31 -22
52 -12 92 54 221 58 114 104 169 194 235 118 86 158 124 206 196 28 42 51 80
51 86 0 6 16 28 36 50 19 22 55 79 78 127 23 48 75 136 114 196 40 59 72 110
72 114 0 3 19 15 43 26 57 27 181 148 219 214 l32 55 12 -60 c6 -33 19 -77 28
-99z m444 -167 c28 -76 36 -148 21 -199 -12 -43 -44 -89 -61 -89 -13 0 -116
-82 -165 -132 -24 -24 -64 -76 -90 -117 -27 -40 -81 -110 -121 -155 -39 -44
-81 -91 -92 -103 -38 -44 -124 -27 -160 32 l-22 36 32 82 c17 45 36 93 42 107
5 14 25 48 44 77 36 55 94 189 94 220 1 29 31 58 92 87 40 19 75 47 118 96 63
71 93 87 190 103 56 9 58 8 78 -45z m2098 -43 c8 -19 32 -59 54 -87 22 -29 48
-73 57 -98 9 -25 20 -50 25 -56 4 -6 22 -37 39 -70 18 -32 48 -84 69 -114 42
-62 63 -142 81 -305 13 -113 13 -123 -1 -370 -5 -99 -10 -254 -11 -345 -1 -91
-6 -194 -13 -229 l-11 -64 -61 -31 c-34 -17 -76 -43 -95 -57 -19 -14 -48 -31
-66 -38 -18 -7 -38 -20 -45 -28 -6 -8 -58 -46 -114 -84 -57 -39 -111 -83 -121
-98 -10 -16 -61 -66 -113 -111 -52 -46 -123 -109 -157 -142 -34 -32 -66 -58
-72 -58 -17 0 -143 71 -186 105 -22 17 -93 66 -157 108 -130 85 -125 81 -175
157 -34 53 -35 58 -30 125 9 110 26 172 64 228 35 51 73 164 73 217 0 14 7 35
15 46 8 10 15 27 15 36 0 10 12 47 26 83 30 75 40 78 125 44 88 -34 224 -27
309 16 14 7 49 20 79 29 29 9 60 21 67 27 17 14 18 70 2 90 -20 24 -111 13
-140 -16 -18 -18 -39 -24 -103 -29 -44 -4 -93 -12 -110 -18 -24 -8 -41 -6 -87
12 -56 21 -57 22 -74 78 -23 75 -21 191 5 317 34 165 73 277 111 320 10 11 20
29 22 40 2 13 21 26 58 40 30 11 70 28 88 38 19 10 36 16 40 13 3 -3 26 6 51
21 76 43 312 198 376 246 33 25 64 46 68 46 4 1 15 -15 23 -34z m3297 -289 c4
-10 1 -13 -8 -9 -8 3 -12 9 -9 14 7 12 11 11 17 -5z m-78 -24 c-3 -3 -11 0
-18 7 -9 10 -8 11 6 5 10 -3 15 -9 12 -12z m-4292 -34 c12 -6 38 -12 57 -14
19 -1 52 -8 72 -15 37 -13 37 -14 31 -59 -3 -25 -12 -58 -19 -75 -7 -16 -18
-66 -23 -110 -5 -45 -16 -94 -22 -110 -9 -20 -14 -95 -15 -222 l-2 -192 -41
-121 c-23 -66 -41 -128 -41 -138 0 -9 -7 -26 -15 -36 -8 -11 -15 -30 -15 -42
0 -13 -20 -62 -45 -109 -24 -47 -54 -122 -66 -166 -20 -73 -21 -88 -10 -152
12 -71 12 -72 -12 -93 -14 -12 -46 -24 -71 -27 -26 -4 -54 -13 -62 -21 -8 -8
-34 -18 -57 -21 -55 -8 -91 15 -238 152 -58 54 -119 105 -136 114 -38 21 -47
65 -28 146 7 32 13 81 13 109 0 59 30 137 61 153 11 6 37 28 57 49 32 33 35
42 31 77 -2 23 -19 62 -40 92 -31 46 -36 62 -42 138 -4 47 -5 109 -2 138 3 40
1 54 -12 64 -13 9 -16 29 -16 95 1 72 5 91 30 142 34 68 53 82 176 127 122 45
193 65 293 84 48 9 102 25 120 36 36 22 58 24 89 7z m4335 -74 c187 -7 165 11
182 -146 5 -54 16 -112 24 -130 8 -18 24 -76 35 -128 11 -52 34 -158 52 -235
38 -170 52 -256 42 -266 -12 -11 -120 -29 -177 -29 -27 0 -91 -10 -142 -22
-86 -20 -94 -24 -106 -52 -7 -17 -13 -63 -13 -103 0 -70 -1 -72 -20 -58 -11 8
-40 26 -65 39 -44 24 -116 104 -160 178 -15 26 -23 59 -26 110 -7 136 -13 846
-6 853 4 3 54 4 112 1 58 -3 178 -8 268 -12z m-5350 -129 c26 -14 56 -25 67
-25 33 0 80 -35 97 -71 14 -31 26 -111 34 -239 9 -141 38 -301 68 -380 4 -9
-15 -38 -49 -75 -30 -33 -55 -64 -55 -69 0 -5 -7 -17 -16 -27 -12 -14 -21 -16
-41 -8 -13 5 -48 12 -76 15 -29 4 -63 11 -76 15 -40 16 -91 0 -249 -79 l-153
-76 -46 55 c-26 29 -64 71 -85 93 -24 24 -35 43 -30 51 4 7 33 35 65 61 61 51
81 87 149 274 26 70 35 186 18 244 l-12 45 43 52 c24 28 60 62 79 75 19 14 54
40 78 59 56 45 118 48 190 10z m-1575 -161 c3 -3 -1 -13 -9 -22 -31 -35 -82
-122 -102 -173 -42 -108 -54 -162 -43 -193 13 -32 1 -92 -28 -141 -28 -47 -90
-215 -101 -275 -6 -30 -8 -89 -4 -130 5 -64 3 -83 -16 -130 -12 -30 -23 -59
-25 -65 -2 -12 -13 -41 -27 -75 -7 -17 -6 -26 1 -28 6 -2 11 -10 11 -18 0 -9
-4 -13 -9 -10 -5 3 -12 -5 -15 -19 -4 -14 -11 -25 -17 -25 -6 0 -6 -7 1 -20 8
-14 8 -20 0 -20 -7 0 -10 -12 -8 -27 2 -17 -2 -27 -9 -26 -14 3 -65 -56 -58
-67 3 -4 -2 -13 -10 -20 -8 -7 -15 -18 -15 -25 0 -7 -6 -15 -14 -18 -8 -3 -17
-18 -19 -34 -3 -15 -5 -3 -4 28 0 30 -2 60 -6 65 -3 6 -6 326 -5 712 l0 701
27 18 c22 15 57 19 243 24 120 3 221 8 224 12 9 9 29 9 37 1z m1050 -222 c23
-20 22 -47 -7 -138 -17 -51 -36 -89 -58 -113 -19 -20 -51 -64 -71 -98 -34 -56
-37 -67 -37 -135 0 -70 2 -77 35 -120 35 -44 78 -73 95 -63 20 12 52 -86 61
-187 10 -113 21 -154 79 -303 36 -93 49 -145 80 -346 13 -79 32 -119 106 -226
63 -91 66 -108 56 -358 l-8 -221 -48 -44 c-27 -25 -54 -49 -60 -55 -24 -22
-108 -55 -140 -55 -59 0 -183 37 -228 67 -24 16 -69 47 -102 67 -68 44 -133
109 -148 149 -5 15 -16 27 -24 27 -21 0 -17 18 7 30 53 29 88 198 89 431 0
177 -9 204 -106 303 -44 46 -96 170 -109 262 -9 68 -33 149 -61 210 -46 100
-58 233 -29 328 8 27 15 66 15 87 0 21 5 61 11 89 10 49 13 52 65 75 30 13 54
28 54 34 0 5 16 24 37 43 20 18 48 44 63 58 156 141 198 183 209 204 13 24 17
24 85 19 42 -3 78 -12 89 -21z m7463 -158 c35 -20 64 -39 64 -43 0 -4 15 -28
33 -52 121 -161 146 -199 160 -243 9 -27 27 -63 40 -80 33 -43 41 -109 26
-224 -7 -53 -13 -98 -15 -100 -8 -11 -224 153 -224 170 0 4 -18 17 -40 28 -21
11 -47 28 -57 38 -33 34 -126 103 -167 124 -22 11 -55 34 -73 51 -32 30 -111
68 -185 88 -50 13 -48 34 5 48 23 6 60 22 82 36 22 13 56 34 75 45 51 28 61
39 110 103 51 69 61 70 166 11z m-3076 -105 c63 -22 133 -45 156 -51 23 -6 65
-28 95 -49 30 -21 86 -54 124 -74 39 -19 66 -35 60 -35 -5 0 -1 -7 9 -15 11
-8 15 -15 9 -15 -7 0 -15 5 -18 10 -13 21 -24 8 -34 -41 -6 -29 -9 -54 -7 -56
2 -3 20 0 40 5 29 8 36 8 36 -4 0 -7 12 -22 27 -31 15 -10 41 -33 58 -52 16
-19 36 -40 42 -47 19 -18 53 -112 47 -126 -3 -7 -24 -27 -48 -45 -40 -29 -45
-38 -63 -113 -27 -111 -28 -206 -4 -326 10 -54 21 -148 24 -208 4 -115 -6
-164 -51 -240 -11 -18 -25 -50 -32 -70 -7 -21 -23 -56 -36 -79 -13 -23 -24
-49 -24 -57 0 -8 -8 -25 -18 -38 -18 -23 -41 -30 -255 -83 -42 -10 -98 -29
-125 -43 -61 -30 -163 -60 -172 -49 -4 4 -24 46 -43 93 -48 115 -79 242 -74
301 5 54 47 148 101 228 31 46 36 61 36 111 0 32 -12 111 -26 176 -14 66 -30
139 -34 164 -5 25 -16 68 -24 95 -9 28 -16 60 -16 71 0 12 -7 35 -15 50 -8 16
-15 39 -15 52 0 12 -4 22 -9 22 -5 0 -11 17 -15 38 -3 20 -19 60 -35 87 -81
137 -89 159 -100 258 -14 122 -14 180 -1 172 6 -3 10 -1 10 4 0 6 -5 11 -11
11 -5 0 -8 4 -4 10 4 6 15 6 31 0 32 -12 43 -13 25 -1 -15 10 10 16 89 24 123
13 174 7 290 -34z m-5093 -82 c-32 -39 -35 -50 -48 -162 -23 -201 -9 -375 43
-523 16 -46 31 -105 34 -130 3 -26 12 -60 19 -77 7 -16 18 -55 24 -85 14 -66
79 -159 143 -206 l43 -31 3 -154 c4 -212 -2 -265 -41 -330 -19 -31 -47 -61
-67 -72 -19 -10 -44 -27 -55 -37 -11 -10 -39 -30 -63 -44 -24 -15 -55 -47 -70
-72 -15 -24 -35 -47 -44 -50 -10 -3 -21 -15 -24 -28 -6 -24 -51 -56 -80 -56
-10 0 -47 18 -83 39 -36 21 -93 48 -126 59 -92 30 -110 41 -129 77 -18 32 -18
37 -2 102 18 72 30 116 64 223 12 36 23 97 25 135 3 39 10 82 16 97 6 15 8 35
5 43 -4 8 -2 21 4 28 6 7 16 44 22 82 18 111 28 135 55 135 16 0 37 16 66 51
36 43 40 52 28 64 -15 15 -36 19 -79 17 -15 -1 -50 -26 -92 -65 -63 -59 -67
-65 -78 -127 -6 -36 -15 -74 -20 -85 -11 -30 -27 -124 -44 -265 -9 -69 -25
-150 -37 -180 -71 -183 -79 -220 -96 -421 -15 -169 -15 -207 -4 -265 16 -81
39 -129 76 -164 15 -14 60 -63 100 -110 80 -94 182 -164 258 -179 75 -14 116
-67 147 -193 27 -113 24 -146 -15 -168 -59 -33 -36 -86 47 -113 67 -21 118
-52 118 -72 0 -8 7 -29 15 -47 8 -18 19 -52 25 -76 14 -56 52 -97 120 -130 61
-30 55 -18 78 -176 10 -67 12 -70 89 -151 79 -84 123 -137 123 -150 0 -16 -55
8 -104 45 -29 22 -56 40 -60 40 -10 0 -133 88 -164 117 -14 13 -29 23 -33 23
-5 0 -21 19 -36 43 -15 23 -51 74 -80 113 -29 39 -53 73 -53 77 0 8 -86 133
-134 194 -23 28 -49 63 -59 78 -10 14 -52 51 -93 81 -41 31 -74 60 -74 64 0 4
-18 20 -40 35 -25 17 -70 73 -124 154 -87 129 -107 170 -230 501 -56 150 -64
177 -86 269 -20 82 -20 63 10 371 25 259 29 329 23 469 l-6 149 50 59 c27 32
57 70 65 84 21 34 78 45 124 23 33 -16 65 -12 92 8 20 17 14 26 -27 47 -45 23
-57 55 -34 90 8 13 26 88 39 165 13 78 33 168 44 202 14 43 20 87 20 151 0
201 68 390 147 406 15 3 89 13 163 22 91 11 145 23 165 36 l30 18 3 -25 c2
-17 -8 -39 -31 -67z m7401 -122 c10 -4 13 -51 13 -212 0 -115 3 -273 8 -353 6
-89 6 -151 0 -162 -10 -18 -31 -25 -159 -54 -92 -21 -179 -51 -202 -71 -9 -9
-17 -27 -16 -42 0 -14 -5 -53 -11 -86 -6 -33 -11 -85 -11 -115 0 -30 -7 -93
-15 -140 -17 -96 -15 -368 3 -410 5 -14 31 -46 57 -72 l47 -46 -27 -49 c-14
-26 -39 -59 -54 -73 -23 -20 -29 -36 -34 -83 -4 -45 -12 -63 -34 -86 -16 -15
-37 -47 -47 -70 -19 -40 -20 -41 -68 -41 -40 0 -70 11 -166 60 -64 33 -129 70
-143 82 -30 27 -77 90 -81 109 -2 8 -7 17 -12 21 -5 3 -13 30 -17 60 -8 57 8
142 42 233 10 28 19 58 19 67 0 15 17 93 55 253 21 89 53 259 65 350 6 44 16
112 23 150 13 77 17 636 5 628 -5 -2 -8 3 -8 11 0 18 29 28 73 25 17 -1 40 2
50 6 9 4 24 5 32 2 8 -4 17 -2 19 2 3 5 25 11 50 14 24 4 91 25 147 48 60 24
131 44 169 48 62 7 201 4 228 -4z m265 -66 c163 -61 175 -70 166 -124 -4 -22
-8 -186 -8 -365 0 -337 -17 -577 -46 -663 -8 -23 -19 -75 -26 -114 -12 -71
-11 -74 13 -110 52 -78 78 -136 78 -174 0 -37 -12 -51 -25 -30 -7 12 -89 36
-210 61 -142 29 -148 28 -185 -25 -59 -85 -127 -99 -212 -44 -52 36 -53 37
-71 115 -14 66 -16 98 -8 196 5 64 11 120 14 125 3 5 8 35 11 68 6 65 24 176
28 180 2 1 26 10 53 18 70 23 206 42 293 41 39 -1 72 2 72 6 0 19 -32 32 -62
26 l-32 -6 21 22 c26 28 73 132 73 162 0 11 -14 50 -30 85 -17 35 -30 71 -29
80 1 9 -2 24 -6 34 -13 31 11 386 31 455 5 16 3 16 97 -19z m-6408 -113 c17
-9 40 -16 51 -16 38 0 47 -25 49 -133 3 -129 19 -167 83 -197 25 -12 61 -38
82 -58 37 -38 112 -99 195 -161 25 -18 45 -38 45 -45 0 -6 -10 -27 -22 -46
-12 -19 -32 -55 -46 -80 -60 -112 -230 -348 -334 -465 -40 -44 -46 -63 -26
-83 9 -9 9 -17 -2 -36 -16 -32 -8 -52 30 -74 17 -9 48 -33 69 -53 21 -19 57
-41 79 -47 23 -7 54 -24 70 -37 16 -14 49 -33 73 -44 24 -10 62 -35 84 -54 29
-27 53 -38 90 -44 49 -8 50 -9 53 -46 4 -52 -24 -144 -48 -157 -11 -6 -20 -15
-20 -19 0 -31 -164 -191 -252 -247 -111 -71 -212 -169 -229 -224 -6 -19 -15
-39 -19 -43 -12 -14 -181 85 -244 144 -34 31 -77 64 -96 74 -19 9 -44 25 -55
35 -11 9 -58 37 -105 61 -47 24 -87 45 -89 46 -2 1 6 14 17 28 26 32 86 73
132 90 79 29 147 65 180 97 56 52 117 139 129 183 13 46 14 314 2 427 -7 68
-14 85 -55 147 -25 39 -46 74 -46 79 0 4 -21 39 -46 76 -44 67 -45 69 -31 103
11 30 11 46 0 106 -7 39 -23 90 -34 114 -14 30 -18 52 -14 76 5 27 2 40 -12
54 -47 48 -97 176 -109 282 l-6 57 48 37 c26 21 59 40 72 44 13 3 54 21 90 40
59 30 74 33 127 29 33 -2 74 -11 90 -20z m6757 -91 c24 -16 54 -41 68 -55 14
-14 35 -33 48 -42 13 -8 51 -41 85 -73 101 -93 106 -97 116 -91 5 3 15 -4 24
-17 8 -12 41 -52 75 -88 54 -60 63 -77 91 -167 17 -55 31 -109 31 -120 0 -25
-54 -72 -84 -72 -12 0 -55 11 -96 25 -41 13 -89 25 -106 25 -31 0 -31 0 -38
-65 -4 -35 -4 -76 0 -91 4 -14 2 -29 -3 -33 -11 -7 -76 -245 -98 -361 -7 -41
-20 -93 -28 -115 -8 -22 -18 -59 -22 -83 -4 -23 -9 -42 -11 -42 -2 0 -31 7
-63 16 l-60 17 -6 51 c-4 28 -18 98 -32 156 -28 121 -30 167 -9 270 43 212 62
609 44 903 -7 105 -6 108 12 95 10 -7 38 -26 62 -43z m-4256 -280 c12 -16 31
-65 42 -109 11 -45 41 -162 67 -261 26 -99 51 -214 55 -255 5 -41 12 -94 16
-118 8 -51 -7 -72 -76 -107 -170 -86 -192 -103 -313 -250 l-25 -29 -37 19
c-54 30 -167 122 -187 154 -10 15 -54 58 -98 95 -44 38 -80 72 -80 77 0 5 -12
15 -27 21 -16 7 -36 18 -45 26 -9 7 -27 12 -40 10 -17 -2 -23 -9 -22 -28 3
-51 32 -103 75 -137 24 -19 67 -58 94 -86 84 -88 174 -161 226 -184 44 -21 49
-25 39 -43 -6 -11 -24 -30 -41 -42 -17 -13 -39 -36 -49 -53 -10 -16 -49 -55
-85 -85 -37 -30 -75 -72 -86 -92 -16 -31 -28 -40 -71 -53 -64 -19 -82 -19
-146 0 -41 12 -61 27 -97 69 -69 80 -162 119 -230 96 -29 -10 -55 -34 -55 -53
0 -3 36 -28 79 -55 81 -51 161 -118 161 -133 0 -19 -66 -82 -110 -104 -26 -13
-61 -36 -78 -50 -35 -30 -33 -30 -139 48 -60 45 -90 104 -79 159 8 40 49 123
110 221 25 41 46 78 46 83 0 20 159 321 192 363 10 13 18 31 18 40 0 15 39
142 62 203 5 15 42 51 82 81 78 59 179 148 211 186 89 107 298 278 449 368 62
37 77 42 120 39 40 -3 54 -9 72 -31z m-1571 -199 c8 -19 25 -42 37 -51 13 -9
51 -35 85 -58 63 -42 135 -93 282 -200 85 -62 98 -83 87 -139 -6 -30 -64 -164
-86 -198 -5 -8 -23 -41 -40 -73 -17 -32 -59 -106 -94 -165 -35 -59 -72 -125
-81 -147 -10 -22 -26 -60 -37 -84 l-19 -44 -102 6 c-56 3 -112 9 -124 12 -28
9 -32 38 -21 146 6 50 6 95 1 100 -13 13 -78 -6 -104 -30 -45 -41 -79 -37
-194 26 -84 46 -241 120 -267 127 -24 5 -28 12 -28 41 0 28 15 55 78 137 42
57 82 110 87 119 6 9 33 50 60 90 28 41 66 103 85 139 37 72 89 149 122 182
12 12 55 31 97 44 42 12 90 29 106 38 43 23 54 20 70 -18z m6268 -381 c20 -8
54 -22 75 -30 20 -8 33 -14 27 -15 -7 0 -7 -3 0 -8 10 -7 28 -36 53 -85 16
-31 24 -244 10 -253 -4 -3 -5 -11 -1 -19 3 -10 -1 -15 -12 -15 -13 0 -15 -3
-7 -13 6 -7 12 -33 14 -57 2 -34 7 -45 19 -44 9 1 16 -4 16 -11 0 -7 -6 -11
-14 -8 -7 3 -13 -1 -13 -9 0 -17 60 -12 72 6 5 6 8 2 8 -10 0 -23 -44 -49 -62
-38 -7 4 -8 2 -4 -5 4 -6 0 -14 -11 -18 -10 -3 -37 -19 -61 -35 -23 -16 -59
-32 -80 -35 -20 -3 -74 -23 -118 -45 -80 -39 -82 -40 -113 -24 -17 9 -31 21
-31 26 0 6 -6 10 -13 10 -7 0 -22 7 -34 15 -21 15 -21 17 -6 48 9 17 20 40 25
51 11 22 24 86 42 221 8 55 21 120 29 145 8 25 19 68 25 95 20 98 33 140 49
157 19 22 64 22 116 3z m197 -111 c0 -8 -5 -12 -10 -9 -6 4 -8 11 -5 16 9 14
15 11 15 -7z m-2726 -299 c55 -14 124 -25 161 -25 36 0 82 -7 102 -15 l36 -15
-8 -73 c-4 -39 -7 -94 -6 -121 4 -168 123 -349 294 -444 42 -24 77 -47 77 -51
0 -10 -57 -48 -140 -94 -36 -20 -100 -67 -144 -106 -46 -42 -88 -71 -100 -71
-35 0 -101 77 -132 153 -17 44 -34 72 -48 77 -12 5 -15 9 -8 9 27 2 11 48 -33
91 -25 24 -45 49 -45 56 0 14 -36 25 -57 17 -12 -5 -14 -17 -10 -51 3 -24 10
-48 17 -52 12 -7 30 -66 34 -110 3 -33 16 -60 28 -60 5 0 26 -16 46 -35 20
-19 40 -35 43 -35 4 0 19 -16 33 -35 l26 -34 -38 13 c-58 21 -189 29 -272 17
-108 -15 -287 -71 -446 -139 -50 -21 -102 -42 -115 -45 -14 -4 -38 -18 -55
-33 -42 -37 -202 -114 -238 -114 -17 0 -49 -10 -71 -21 -37 -20 -50 -21 -178
-16 l-137 5 -20 -25 c-21 -27 -26 -68 -11 -92 7 -11 26 -13 87 -8 42 4 74 4
71 0 -4 -3 -24 -27 -45 -52 -144 -176 -302 -281 -419 -281 -162 1 -329 57
-411 137 -8 7 -35 27 -60 45 -26 17 -76 61 -111 96 l-63 64 21 27 c11 14 27
40 35 56 12 26 185 202 241 245 26 20 134 115 162 142 l22 22 48 -34 c83 -58
103 -81 103 -117 0 -20 5 -33 13 -33 6 0 36 -18 65 -40 29 -22 59 -40 67 -40
21 0 19 45 -5 94 -10 23 -24 60 -30 84 -8 32 -18 46 -38 54 -79 32 -132 59
-132 67 0 23 84 77 242 155 95 47 187 88 203 91 17 4 54 16 83 27 62 24 66 22
128 -68 21 -30 58 -68 83 -84 85 -54 111 -84 137 -154 13 -37 24 -85 24 -107
0 -47 8 -64 50 -109 40 -43 58 -29 61 48 7 208 7 213 -31 267 -19 28 -39 52
-45 54 -5 2 -37 32 -71 65 -33 34 -79 78 -101 98 -43 39 -83 86 -83 98 0 4 11
20 26 36 71 81 124 126 183 156 36 18 86 45 110 60 79 49 171 72 329 82 29 2
54 5 56 7 17 23 46 82 56 113 7 21 34 60 60 87 l48 49 75 0 c47 0 110 -9 171
-25z m2729 -12 c-4 -10 -2 -14 5 -9 6 3 13 2 16 -3 4 -5 -1 -8 -9 -7 -20 3
-28 13 -20 25 10 17 15 13 8 -6z m-4759 -48 c14 -35 17 -69 14 -148 -1 -56 -7
-105 -12 -109 -5 -3 -16 -30 -23 -59 -13 -50 -12 -53 9 -77 49 -53 100 -82
142 -82 36 0 274 -45 283 -53 1 -2 -28 -14 -65 -27 -37 -13 -96 -39 -131 -57
-51 -28 -74 -34 -108 -31 -48 4 -56 -7 -19 -24 47 -21 39 -67 -12 -71 -12 -1
-25 -10 -28 -22 -8 -24 -68 -82 -194 -185 -102 -83 -138 -120 -217 -216 -27
-33 -54 -59 -60 -57 -7 3 -19 28 -29 56 -9 29 -23 59 -31 69 -13 14 -12 20 3
43 13 19 19 54 22 131 l5 103 38 41 c22 23 39 49 39 58 0 10 -30 45 -66 77
-36 33 -86 80 -109 105 -44 44 -44 44 -27 73 18 31 137 151 187 189 17 13 88
80 160 151 71 70 134 127 141 127 6 0 22 9 35 20 13 10 27 19 30 20 4 0 14
-20 23 -45z m4744 4 c-3 -8 -7 -3 -11 10 -4 17 -3 21 5 13 5 -5 8 -16 6 -23z
m52 -23 c0 -31 -13 -76 -22 -76 -6 0 -8 6 -5 13 3 7 -1 24 -8 38 l-14 24 -10
-25 -10 -25 2 28 c1 15 5 27 8 27 17 0 38 -13 34 -20 -3 -5 0 -12 6 -16 8 -5
10 1 7 20 -3 14 -1 26 3 26 5 0 9 -6 9 -14z m-1101 -131 c29 -7 82 -28 117
-45 l63 -32 -23 -36 c-12 -21 -28 -51 -35 -69 -7 -18 -26 -46 -42 -63 -16 -16
-29 -39 -29 -50 0 -12 -10 -25 -25 -32 -13 -6 -33 -31 -45 -55 -11 -24 -32
-53 -46 -66 -14 -12 -37 -46 -50 -75 -12 -29 -31 -55 -41 -59 -10 -3 -30 -17
-45 -31 -26 -24 -30 -25 -124 -19 -77 5 -102 11 -118 26 -12 11 -42 29 -68 40
-27 11 -48 25 -48 31 0 6 6 8 13 5 6 -4 3 0 -7 9 -10 8 -23 13 -27 10 -5 -3
-9 4 -9 16 0 12 4 19 8 16 13 -8 28 7 68 69 43 67 134 265 141 308 7 37 15 40
98 38 71 -2 73 -2 119 38 52 45 71 49 155 26z m-7400 -101 c25 -15 55 -34 66
-44 11 -9 67 -43 125 -75 58 -32 130 -73 160 -93 l54 -34 -27 -24 c-37 -32
-64 -30 -142 8 -72 36 -100 32 -100 -13 0 -25 10 -33 160 -124 36 -22 88 -54
115 -71 27 -18 100 -55 162 -84 135 -62 144 -69 274 -198 81 -80 111 -103 152
-116 29 -10 52 -23 52 -29 0 -6 7 -18 15 -27 8 -9 27 -50 41 -91 14 -41 41
-105 60 -143 50 -100 47 -116 -25 -154 -117 -63 -167 -73 -396 -82 -115 -5
-239 -13 -275 -20 -36 -6 -94 -15 -130 -20 -106 -15 -105 -15 -108 -44 l-3
-27 133 1 c73 0 225 -2 338 -6 230 -7 267 -2 466 62 l115 36 20 -26 c17 -22
29 -26 69 -26 27 0 72 -5 100 -11 43 -9 54 -17 82 -56 26 -39 32 -58 36 -120
4 -59 9 -77 26 -91 11 -9 33 -33 48 -53 19 -25 47 -45 92 -64 37 -15 66 -32
66 -38 0 -15 -50 -70 -78 -85 -52 -26 -153 -54 -177 -48 -13 3 -44 24 -69 45
-36 32 -56 41 -100 46 -48 6 -62 3 -133 -28 -76 -35 -94 -51 -153 -136 -29
-42 -126 -53 -229 -27 -153 40 -200 48 -255 41 -68 -9 -111 6 -125 43 -14 37
-32 58 -58 66 -12 4 -44 41 -72 84 -27 42 -63 86 -80 97 -38 25 -49 50 -60
141 -5 39 -16 85 -25 102 -19 36 -69 77 -114 93 -38 13 -90 83 -137 183 -19
39 -51 97 -71 129 -36 55 -37 61 -44 176 -6 108 -10 125 -42 192 -41 86 -54
141 -63 259 -5 65 -14 100 -37 147 -25 53 -28 68 -22 108 6 46 9 48 61 71 55
25 123 72 123 87 0 4 13 37 29 72 34 74 43 77 110 39z m-651 -67 c26 -15 86
-46 133 -68 l87 -41 7 -82 c4 -44 13 -96 21 -114 7 -18 16 -91 20 -162 l7
-130 -34 6 c-65 11 -135 53 -212 127 -62 60 -84 89 -113 152 l-36 79 7 153 7
153 30 -23 c16 -12 51 -34 76 -50z m8418 24 c52 -19 130 -67 152 -94 7 -8 26
-20 42 -27 17 -7 30 -16 30 -20 0 -14 -135 -146 -174 -170 -22 -13 -66 -47
-98 -76 -63 -56 -149 -102 -240 -129 -57 -16 -59 -16 -88 5 l-30 22 22 31 c13
17 39 58 58 92 69 121 116 185 146 201 29 16 54 64 54 103 0 21 45 81 60 81 8
0 38 -8 66 -19z m644 -111 c9 -17 7 -22 -14 -30 -17 -6 -28 -21 -34 -42 -7
-29 -19 -39 -105 -83 -53 -27 -107 -60 -120 -72 l-23 -23 -42 20 -42 21 17 27
c41 66 176 170 251 192 52 16 100 12 112 -10z m-6420 -32 c16 -18 51 -73 76
-121 43 -82 60 -105 152 -200 34 -36 110 -91 135 -100 14 -4 -15 -78 -48 -121
-29 -37 -105 -188 -105 -207 0 -8 -22 -63 -49 -124 l-48 -110 -154 0 c-85 0
-161 -4 -170 -10 -9 -5 -38 -37 -64 -70 -27 -33 -62 -75 -78 -92 -28 -30 -32
-31 -48 -17 -9 8 -50 24 -90 36 -41 11 -86 26 -100 34 -37 18 -70 91 -76 167
-6 70 -24 111 -54 127 -15 8 -18 17 -13 33 4 12 6 45 5 72 -3 80 22 169 61
214 18 21 76 71 128 112 52 40 115 91 141 113 25 23 61 55 80 72 18 16 54 56
78 87 32 41 63 68 115 96 39 22 76 40 83 40 7 1 26 -14 43 -31z m1077 -189
c59 -33 61 -36 73 -111 9 -53 9 -80 1 -108 -6 -21 -11 -53 -11 -71 0 -60 -36
-173 -68 -219 -18 -23 -32 -49 -32 -56 0 -14 123 -79 170 -89 17 -4 32 -11 35
-15 10 -15 -71 -163 -118 -215 l-44 -49 -199 2 c-109 1 -251 -2 -313 -6 l-115
-9 -42 -47 c-22 -26 -52 -71 -65 -99 -13 -29 -26 -54 -30 -57 -3 -3 -22 -36
-43 -75 -20 -38 -42 -77 -49 -85 -20 -26 -60 -50 -83 -50 -12 0 -53 -14 -91
-31 -87 -39 -157 -48 -204 -24 -51 26 -139 104 -139 124 0 27 28 126 48 173
11 24 27 62 37 85 38 90 106 126 260 137 150 11 176 28 203 131 16 61 122 283
157 329 14 18 35 51 48 74 95 172 218 302 285 302 11 0 44 11 73 24 30 14 77
27 104 29 28 3 61 10 75 15 35 15 35 15 77 -9z m4949 -48 l33 -30 -49 -31
c-27 -18 -72 -58 -100 -90 -28 -33 -68 -69 -88 -82 -20 -12 -61 -42 -91 -66
-89 -72 -123 -94 -281 -178 -84 -45 -189 -89 -257 -109 -20 -5 -21 -4 -13 22
8 27 26 71 77 185 23 50 33 61 82 86 55 29 83 38 151 46 32 4 145 43 187 65
10 5 45 19 78 32 57 21 181 115 213 161 17 23 18 23 58 -11z m-1370 -81 c50 0
61 -4 98 -36 22 -19 46 -39 53 -45 14 -10 -78 -164 -155 -259 -85 -105 -210
-230 -225 -224 -8 3 -21 -5 -29 -18 -8 -13 -29 -38 -47 -57 l-31 -34 -25 27
c-14 15 -35 46 -46 69 -12 23 -33 55 -46 71 -13 16 -37 55 -53 87 l-29 57 63
65 c35 35 108 94 163 131 55 37 127 93 159 125 46 46 63 57 76 50 9 -5 42 -9
74 -9z m446 -176 c78 -7 78 8 -3 -162 -28 -59 -65 -136 -81 -172 -17 -36 -41
-78 -53 -95 -12 -16 -37 -57 -55 -90 -18 -33 -47 -78 -65 -100 -18 -22 -52
-75 -76 -119 -24 -43 -54 -85 -66 -93 -21 -14 -24 -13 -49 16 -16 19 -35 31
-50 31 -18 0 -23 4 -18 13 5 8 2 8 -9 -2 -15 -12 -17 -10 -17 22 0 29 6 39 30
54 31 18 40 43 17 43 -9 0 -12 10 -9 30 2 17 1 30 -2 30 -4 0 -31 -12 -61 -27
-53 -28 -75 -55 -75 -94 0 -26 77 -189 90 -189 14 0 79 -44 80 -54 0 -14 -55
-111 -117 -203 -34 -51 -69 -91 -92 -104 -20 -12 -41 -28 -47 -36 -20 -23
-198 -83 -308 -103 -27 -5 -59 -18 -71 -30 -12 -11 -33 -20 -47 -20 -17 0 -57
-23 -111 -65 -55 -41 -107 -72 -148 -85 -34 -12 -80 -30 -100 -41 -45 -23 -61
-23 -114 -4 -49 17 -160 19 -223 3 -70 -17 -210 -91 -270 -142 -28 -24 -61
-48 -72 -51 -26 -8 -25 -30 2 -49 34 -24 74 -19 147 18 91 46 183 78 216 74
25 -3 22 -6 -31 -32 -33 -16 -65 -38 -72 -48 -7 -10 -39 -30 -70 -45 -31 -14
-84 -46 -117 -70 -87 -64 -164 -112 -211 -133 -22 -10 -65 -36 -95 -59 -30
-22 -59 -41 -65 -41 -6 0 -17 -7 -24 -15 -20 -24 -91 -28 -179 -10 -50 10
-101 14 -129 11 -42 -6 -144 12 -159 28 -6 6 43 66 128 160 59 66 61 68 145
196 31 47 88 117 126 156 57 58 81 75 127 89 106 34 216 77 256 100 22 12 72
39 110 60 39 20 78 44 88 52 9 9 26 21 36 27 10 6 47 35 81 64 70 60 202 129
323 170 149 51 318 144 397 220 40 39 136 89 189 98 20 4 56 16 80 26 38 16
56 31 100 83 5 6 37 36 71 68 51 48 67 57 89 53 23 -5 36 7 121 105 52 61 125
144 163 186 37 41 67 80 67 86 0 7 17 28 38 48 20 20 46 58 56 85 27 67 53 94
91 89 17 -2 60 -7 97 -11z m-8128 -139 c10 -41 52 -125 98 -196 91 -140 89
-139 273 -340 23 -24 81 -83 130 -131 50 -47 103 -104 118 -125 46 -63 131
-196 152 -239 28 -55 207 -230 301 -294 93 -63 181 -108 247 -125 29 -7 130
-13 265 -14 194 -2 351 -16 407 -37 22 -9 26 -52 23 -249 l-3 -180 -80 0 c-44
0 -298 3 -565 6 -465 6 -817 0 -1095 -17 -72 -5 -168 -8 -214 -9 l-84 0 -4
850 c-6 984 1 1220 31 1100z m6841 -32 c11 -5 41 -20 68 -33 26 -12 47 -27 47
-32 0 -20 67 -97 97 -112 19 -9 50 -42 77 -83 25 -37 63 -93 85 -125 l40 -56
-24 -16 c-15 -10 -55 -18 -101 -21 -51 -3 -93 -12 -127 -28 -52 -24 -69 -36
-156 -113 -25 -22 -86 -63 -136 -90 -107 -58 -283 -144 -296 -144 -5 0 -9 21
-9 48 0 91 -51 213 -181 434 -55 92 -99 171 -99 176 0 5 23 19 51 32 28 14 65
35 82 47 17 13 40 23 51 23 23 0 132 33 236 71 41 15 86 29 100 32 39 8 173 2
195 -10z m2071 -185 c1 -112 4 -511 8 -888 4 -383 4 -703 -1 -725 l-9 -40
-889 -3 c-490 -2 -962 -4 -1050 -5 l-160 -2 -3 45 c-2 25 -1 86 3 136 l7 92
56 42 c99 73 137 89 447 182 39 12 88 30 110 41 52 25 150 101 195 151 19 22
42 47 51 55 39 38 119 171 139 231 13 36 42 93 66 127 24 34 44 64 44 66 0 3
30 49 66 104 36 54 75 115 85 136 21 39 74 79 124 91 16 4 54 18 83 32 29 13
56 24 60 24 4 0 21 7 37 16 17 9 73 38 126 65 53 28 164 90 245 139 82 50 151
90 154 90 3 0 5 -91 6 -202z m-2851 -176 c13 -40 41 -97 62 -128 94 -141 153
-295 153 -400 0 -43 0 -43 -62 -71 -34 -15 -91 -52 -127 -81 -36 -29 -80 -60
-97 -67 -18 -7 -56 -29 -86 -47 -53 -34 -108 -58 -135 -58 -7 0 -27 28 -44 63
-17 34 -40 79 -50 99 -11 20 -19 41 -19 46 0 16 -106 122 -121 122 -8 0 -24
-3 -37 -6 -19 -6 -22 -11 -17 -33 3 -14 13 -39 21 -55 8 -16 14 -36 14 -44 0
-9 6 -23 14 -31 25 -29 53 -86 70 -144 9 -31 21 -59 26 -62 6 -3 10 -10 10
-15 0 -14 -119 -48 -225 -65 -154 -24 -159 -24 -345 -31 -203 -8 -334 4 -460
41 -199 59 -225 64 -259 45 -25 -13 -45 -64 -38 -98 5 -25 -2 -36 -51 -85 -31
-30 -79 -67 -107 -82 -47 -24 -50 -25 -63 -8 -16 23 -26 60 -57 223 -21 113
-33 151 -72 229 -62 121 -62 153 -4 272 47 96 73 128 134 165 50 31 76 57 110
110 14 21 50 65 81 97 55 56 57 57 81 41 13 -9 27 -24 30 -35 4 -10 10 -19 15
-19 5 0 11 -9 15 -20 12 -38 82 -115 126 -139 160 -88 272 -131 343 -131 65 0
59 -13 -40 -76 -151 -97 -347 -152 -573 -161 -124 -6 -137 -8 -158 -29 -45
-45 -22 -91 65 -129 71 -31 145 -25 352 28 102 27 199 54 217 62 17 8 36 15
41 15 6 0 17 6 25 14 16 16 87 56 100 56 23 0 82 60 107 110 26 52 32 57 82
72 29 9 70 19 91 23 101 17 214 85 317 190 30 31 70 71 89 88 19 18 44 43 55
57 92 108 95 110 186 119 47 4 105 17 130 28 25 11 49 17 53 13 4 -4 19 -39
32 -78z m-2147 -231 l33 -1 -30 -32 c-57 -61 -101 -221 -101 -369 l0 -76 -87
-10 c-80 -10 -90 -9 -115 8 -39 27 -63 24 -107 -16 -21 -19 -48 -35 -60 -35
-12 0 -48 -11 -81 -25 -70 -30 -91 -31 -113 -7 -18 20 -47 98 -47 127 0 11 10
27 23 34 12 8 52 38 88 68 59 47 70 62 98 130 38 92 97 182 125 188 12 3 35 5
51 4 17 0 62 3 100 8 39 4 97 7 130 6 33 -1 75 -2 93 -2z m-824 -486 c11 -54
72 -148 128 -195 l50 -43 137 45 c215 72 211 72 317 65 53 -3 107 -1 121 4 19
7 25 5 29 -9 4 -9 13 -33 22 -52 20 -44 41 -184 42 -270 0 -78 14 -134 41
-161 27 -27 24 -32 -18 -26 -45 6 -330 -16 -388 -31 -22 -5 -92 -15 -155 -21
-63 -7 -167 -19 -230 -27 -131 -16 -232 -17 -378 -4 -170 15 -246 48 -353 151
-22 21 -45 39 -50 39 -5 0 -43 40 -84 89 -42 49 -91 96 -109 105 -52 25 -60
39 -44 83 7 21 16 40 19 43 3 3 18 28 34 57 15 29 32 50 37 47 4 -3 6 -9 3
-14 -3 -5 -1 -11 4 -14 5 -3 11 3 14 14 3 10 0 21 -7 24 -7 3 -6 5 2 5 8 1 16
-8 19 -19 5 -20 23 -28 23 -11 0 49 118 52 178 4 88 -71 135 -78 256 -38 103
34 153 60 202 107 39 37 110 87 125 88 4 0 10 -16 13 -35z m1471 -415 c33 -5
96 -15 140 -21 93 -13 528 -18 597 -6 l48 8 -54 -83 c-29 -46 -69 -99 -87
-118 -19 -19 -52 -62 -74 -94 -21 -33 -55 -75 -75 -95 -20 -20 -49 -52 -63
-72 -27 -35 -27 -35 -84 -28 -32 4 -78 14 -102 23 -24 9 -56 16 -72 16 -53 0
-129 46 -129 79 0 9 -15 39 -34 66 -19 28 -51 78 -70 112 -32 54 -44 66 -98
92 l-61 29 59 57 c44 42 64 54 79 50 11 -3 47 -10 80 -15z m-2236 -310 c-3
-51 -2 -51 60 -48 47 2 64 -1 80 -16 12 -11 21 -25 21 -31 0 -17 -114 -26
-210 -17 l-75 7 -3 130 -3 130 66 -65 c49 -48 65 -71 64 -90z m4298 53 l-5
-98 -44 1 c-62 0 -312 16 -316 19 -1 1 26 24 60 49 99 74 207 121 286 125 24
1 24 1 19 -96z m-2322 15 c14 -6 35 -27 47 -46 31 -51 36 -49 -222 -83 -85
-11 -231 -22 -325 -24 -197 -4 -154 7 95 25 85 6 169 16 185 22 33 13 97 59
132 95 25 26 49 29 88 11z m1739 -355 c-8 -32 -21 -87 -30 -123 -9 -36 -18
-76 -21 -90 -2 -14 -10 -45 -18 -70 -35 -122 -45 -198 -45 -356 l0 -162 -52
-50 c-29 -28 -75 -66 -103 -86 -27 -19 -66 -47 -86 -61 -49 -35 -91 -46 -113
-29 -24 17 -41 104 -24 116 9 6 10 10 2 16 -6 4 -14 34 -18 67 -4 33 -13 105
-21 160 -18 125 -33 270 -41 398 l-7 97 74 0 c84 0 146 20 226 72 75 48 111
69 173 98 30 14 69 33 85 42 17 10 31 17 32 18 0 0 -5 -26 -13 -57z"/>
<path d="M5960 7521 c-5 -11 -10 -31 -10 -45 0 -13 -6 -26 -12 -29 -10 -4 -10
-7 -1 -17 10 -10 15 -11 27 -1 12 10 16 9 24 -5 9 -16 92 -52 132 -57 8 -1 16
7 18 19 3 19 -13 42 -89 132 -24 28 -74 30 -89 3z"/>
<path d="M5693 6655 c0 -8 4 -12 9 -9 5 3 6 10 3 15 -9 13 -12 11 -12 -6z"/>
<path d="M7963 6073 c-21 -8 -15 -18 12 -19 15 -1 24 3 22 9 -4 13 -18 17 -34
10z"/>
<path d="M8010 6040 c0 -16 -5 -30 -11 -30 -5 0 -7 4 -4 10 3 5 -6 12 -20 16
-18 4 -31 0 -50 -17 -33 -32 -32 -38 15 -45 50 -8 44 -19 -19 -34 -28 -6 -54
-17 -59 -23 -15 -20 6 -77 34 -89 21 -10 27 -8 44 9 10 12 16 25 12 29 -4 5 0
3 8 -3 8 -7 29 -13 47 -13 26 0 33 -4 31 -17 -2 -10 4 -19 13 -21 14 -2 16 5
14 45 -3 70 -3 70 -27 76 -12 4 -19 9 -16 12 3 4 27 -4 52 -17 45 -22 46 -24
40 -60 -7 -48 1 -49 21 -2 22 53 19 76 -13 98 -15 10 -42 38 -60 62 -38 52
-52 55 -52 14z m-13 -72 c-3 -8 -6 -5 -6 6 -1 11 2 17 5 13 3 -3 4 -12 1 -19z"/>
<path d="M9666 4488 c3 -4 11 -5 19 -1 21 7 19 12 -4 10 -11 0 -18 -5 -15 -9z"/>
<path d="M6521 4426 c-40 -42 -38 -81 6 -92 47 -12 163 60 163 102 0 23 -3 24
-68 24 -64 0 -70 -2 -101 -34z"/>
<path d="M7005 4030 c-7 -23 10 -50 31 -50 17 0 17 -1 3 39 -13 36 -25 40 -34
11z"/>
<path d="M5817 3873 c-13 -12 -7 -23 13 -23 13 0 18 5 14 15 -7 16 -17 19 -27
8z"/>
<path d="M1650 3167 c0 -13 29 -67 68 -127 20 -30 38 -57 39 -59 2 -2 5 -2 7
0 8 8 -52 123 -83 159 -17 19 -30 31 -31 27z"/>
<path d="M2341 2642 c-17 -41 -62 -60 -104 -44 -28 10 -34 9 -52 -9 -20 -20
-20 -20 0 -35 52 -38 100 -30 162 29 l45 43 -19 23 -19 24 -13 -31z"/>
<path d="M3738 3277 c-62 -36 -59 -69 6 -81 34 -7 46 -21 46 -57 0 -27 10 -23
54 20 38 38 38 39 21 65 -17 25 -19 26 -36 10 -20 -18 -27 -6 -8 13 15 15 -6
53 -29 53 -9 -1 -34 -11 -54 -23z"/>
<path d="M4072 1859 c2 -12 13 -25 24 -30 21 -7 21 -7 7 22 -17 34 -36 39 -31
8z"/>
<path d="M9328 8853 c7 -3 16 -2 19 1 4 3 -2 6 -13 5 -11 0 -14 -3 -6 -6z"/>
<path d="M10080 80 l0 -80 80 0 80 0 0 80 0 80 -80 0 -80 0 0 -80z"/>
</g>
</svg>
