<?xml version="1.0" standalone="no"?>
<!DOCTYPE svg PUBLIC "-//W3C//DTD SVG 20010904//EN"
 "http://www.w3.org/TR/2001/REC-SVG-20010904/DTD/svg10.dtd">
<svg version="1.0" xmlns="http://www.w3.org/2000/svg"
 width="1156.000000pt" height="1000.000000pt" viewBox="0 0 1156.000000 1000.000000"
 preserveAspectRatio="xMidYMid meet">

<g transform="translate(0.000000,1000.000000) scale(0.100000,-0.100000)"
fill="#000000" stroke="none">
<path d="M3694 9985 c-142 -31 -257 -97 -354 -203 -193 -210 -225 -531 -78
-780 18 -31 66 -89 106 -129 58 -58 91 -82 165 -117 115 -55 178 -70 292 -70
114 0 177 15 294 71 223 107 361 330 361 583 -1 110 -10 160 -47 250 -119 290
-439 460 -739 395z"/>
<path d="M10053 9208 l-1432 -700 -32 38 c-131 154 -395 402 -586 551 -365
283 -841 533 -1273 668 -101 31 -346 95 -363 94 -7 0 39 -20 101 -45 607 -237
1129 -636 1517 -1158 77 -104 226 -332 225 -345 -1 -3 -271 -137 -600 -298
l-600 -292 -207 70 c-113 38 -208 67 -210 66 -1 -2 179 -279 400 -615 221
-337 403 -609 404 -605 2 5 -12 139 -31 298 -19 160 -34 290 -33 291 35 24
1055 678 1063 681 19 7 107 -248 163 -472 67 -272 95 -516 95 -825 -1 -328
-30 -564 -109 -865 -123 -473 -361 -937 -668 -1307 l-64 -77 -177 264 c-97
144 -176 266 -176 269 0 3 50 110 111 237 61 127 109 232 107 233 -4 4 -1118
-658 -1118 -665 0 -3 82 -16 183 -29 100 -12 187 -26 193 -29 18 -9 524 -609
524 -621 0 -14 -176 -152 -315 -247 -478 -323 -1033 -520 -1615 -573 -132 -11
-520 -14 -520 -2 0 10 90 603 95 627 3 13 53 49 150 105 80 47 145 87 145 90
0 7 -1111 353 -1116 347 -2 -2 40 -63 94 -135 l99 -131 6 -203 c10 -284 9
-628 -1 -628 -5 0 -75 18 -157 41 -474 130 -915 361 -1295 680 -124 104 -377
359 -450 453 -44 58 -44 59 -24 75 11 9 635 464 1386 1011 751 547 1365 996
1363 998 -2 2 -697 -344 -1545 -768 -848 -424 -1543 -770 -1545 -768 -1 2 -28
54 -60 117 -181 362 -293 759 -336 1194 -15 155 -6 623 15 769 68 475 224 918
460 1313 54 90 59 103 30 70 -61 -67 -198 -254 -276 -375 -351 -543 -551
-1100 -638 -1775 -34 -265 -30 -691 10 -991 27 -208 98 -538 136 -637 5 -13
-108 -73 -580 -309 l-586 -293 -196 98 c-194 97 -196 98 -177 65 10 -18 210
-377 443 -798 234 -420 426 -757 428 -749 1 8 -1 145 -7 305 -8 263 -8 290 7
305 10 9 193 144 407 300 215 155 422 307 462 336 l71 53 52 -97 c164 -307
399 -627 656 -892 523 -541 1140 -907 1874 -1114 l85 -24 6 -189 c4 -104 8
-427 9 -719 2 -291 5 -619 9 -729 l6 -198 134 883 c74 486 135 885 136 886 1
2 64 -6 141 -17 960 -134 1962 88 2782 617 183 118 390 279 562 437 57 53 107
95 111 94 4 -2 399 -466 879 -1033 480 -566 884 -1041 897 -1055 14 -14 -30
58 -99 160 -185 274 -1444 2153 -1451 2166 -3 5 31 55 75 110 170 209 319 438
449 689 186 359 320 752 393 1155 47 259 60 414 60 725 1 292 -5 376 -45 640
-84 557 -307 1136 -619 1610 -39 59 -68 111 -63 116 4 4 593 384 1308 844
1179 759 1329 857 1315 854 -3 0 -649 -316 -1437 -701z"/>
</g>
</svg>
